<svg
   xmlns:dc="http://purl.org/dc/elements/1.1/"
   xmlns:cc="http://creativecommons.org/ns#"
   xmlns:rdf="http://www.w3.org/1999/02/22-rdf-syntax-ns#"
   xmlns:svg="http://www.w3.org/2000/svg"
   xmlns="http://www.w3.org/2000/svg"
   xmlns:sodipodi="http://sodipodi.sourceforge.net/DTD/sodipodi-0.dtd"
   xmlns:inkscape="http://www.inkscape.org/namespaces/inkscape"
   sodipodi:docname="banner-federaciones.svg"
   inkscape:version="1.0beta2 (2b71d25, 2019-12-03)"
   id="svg239"
   version="1.1"
   viewBox="0 0 139.92744 10.342445"
   height="10.342445mm"
   width="139.92744mm">
  <defs
     id="defs233">
    <linearGradient
       gradientTransform="matrix(0.26458333,0,0,0.26458333,27.482405,58.940911)"
       y2="323.79831"
       x2="246.80811"
       y1="348.59329"
       x1="246.80811"
       gradientUnits="userSpaceOnUse"
       id="SVGID_1_">
      <stop
         id="stop1337"
         style="stop-color:#F9C94C"
         offset="0" />
      <stop
         id="stop1339"
         style="stop-color:#F8C249"
         offset="0.1899" />
      <stop
         id="stop1341"
         style="stop-color:#F5B140"
         offset="0.4981" />
      <stop
         id="stop1343"
         style="stop-color:#EF9234"
         offset="0.884" />
      <stop
         id="stop1345"
         style="stop-color:#EE8730"
         offset="1" />
    </linearGradient>
    <linearGradient
       y2="345.97119"
       x2="256.1777"
       y1="345.97119"
       x1="247.7114"
       gradientUnits="userSpaceOnUse"
       id="SVGID_2_">
      <stop
         id="stop1350"
         style="stop-color:#EE8730"
         offset="0" />
      <stop
         id="stop1352"
         style="stop-color:#EC8133"
         offset="0.1678" />
      <stop
         id="stop1354"
         style="stop-color:#E8703B"
         offset="0.4149" />
      <stop
         id="stop1356"
         style="stop-color:#E25242"
         offset="0.7091" />
      <stop
         id="stop1358"
         style="stop-color:#DC2846"
         offset="1" />
    </linearGradient>
    <linearGradient
       y2="334.48291"
       x2="246.8013"
       y1="334.48291"
       x1="234.4873"
       gradientUnits="userSpaceOnUse"
       id="SVGID_3_">
      <stop
         id="stop1363"
         style="stop-color:#EE8730"
         offset="0" />
      <stop
         id="stop1365"
         style="stop-color:#EC8133"
         offset="0.1678" />
      <stop
         id="stop1367"
         style="stop-color:#E8703B"
         offset="0.4149" />
      <stop
         id="stop1369"
         style="stop-color:#E25242"
         offset="0.7091" />
      <stop
         id="stop1371"
         style="stop-color:#DC2846"
         offset="1" />
    </linearGradient>
  </defs>
  <sodipodi:namedview
     inkscape:window-maximized="0"
     inkscape:window-y="23"
     inkscape:window-x="0"
     inkscape:window-height="855"
     inkscape:window-width="1440"
     fit-margin-bottom="0"
     fit-margin-right="0"
     fit-margin-left="0"
     fit-margin-top="0"
     showgrid="false"
     inkscape:document-rotation="0"
     inkscape:current-layer="g492"
     inkscape:document-units="mm"
     inkscape:cy="34.210865"
     inkscape:cx="53.290001"
     inkscape:zoom="5.6577218"
     inkscape:pageshadow="2"
     inkscape:pageopacity="0.0"
     borderopacity="1.0"
     bordercolor="#666666"
     pagecolor="#ffffff"
     id="base" />
  <metadata
     id="metadata236">
    <rdf:RDF>
      <cc:Work
         rdf:about="">
        <dc:format>image/svg+xml</dc:format>
        <dc:type
           rdf:resource="http://purl.org/dc/dcmitype/StillImage" />
        <dc:title></dc:title>
      </cc:Work>
    </rdf:RDF>
  </metadata>
  <g
     transform="translate(-45.443885,-149.66629)"
     id="layer1"
     inkscape:groupmode="layer"
     inkscape:label="Capa 1">
    <g
       transform="matrix(1.4068291,0,0,1.4068291,13.537134,-53.607671)"
       id="g456">
      <g
         id="g1325"
         transform="matrix(0.26458333,0,0,0.26458333,27.482404,58.94091)">
        <path
           fill="#272E80"
           d="m 270.639,347.572 c -1.107,0.361 -2.273,0.527 -3.688,0.527 -4.268,0 -6.652,-2.744 -6.652,-7.596 0,-3.688 1.664,-6.211 5.654,-6.211 3.355,0 5.02,2.135 5.02,5.352 v 0.748 h -7.818 c 0,1.83 1.248,5.545 4.963,5.545 0.969,0 1.967,-0.305 2.521,-0.5 z m -2.578,-9.037 c 0,-0.832 -0.416,-2.273 -2.328,-2.273 -1.803,0 -2.412,1.498 -2.496,2.273 z"
           id="path1319"
           inkscape:connector-curvature="0" />
        <path
           fill="#272E80"
           d="m 281.008,345.964 h -0.057 c -0.277,0.748 -1.635,2.135 -3.299,2.135 -3.52,0 -4.518,-3.217 -4.518,-6.902 0,-3.826 1.357,-6.904 4.518,-6.904 1.969,0 2.912,1.221 3.299,1.887 h 0.057 v -7.514 h 3.076 v 19.129 h -3.076 z m -2.33,-0.25 c 1.719,0 2.33,-2.412 2.33,-4.518 0,-2.439 -0.555,-4.52 -2.33,-4.52 -2.023,0 -2.271,2.328 -2.271,4.52 -10e-4,2.079 0.331,4.518 2.271,4.518 z"
           id="path1321"
           inkscape:connector-curvature="0" />
        <path
           fill="#272E80"
           d="m 295.312,345.328 h -0.057 c -0.414,0.998 -1.496,2.771 -3.908,2.771 -1.939,0 -3.576,-1.33 -3.576,-4.352 v -9.15 h 3.078 v 7.541 c 0,2.689 0.277,3.078 1.357,3.078 2.051,0 3.105,-2.801 3.105,-4.908 v -5.711 h 3.076 v 13.197 h -3.076 v -2.466 z"
           id="path1323"
           inkscape:connector-curvature="0" />
      </g>
      <g
         id="g1335"
         transform="matrix(0.26458333,0,0,0.26458333,27.482404,58.94091)">
        <path
           fill="#EE8730"
           d="m 315.689,346.353 c -0.723,0.555 -2.994,1.746 -6.018,1.746 -5.711,0 -8.15,-4.27 -8.15,-9.896 0,-6.127 2.107,-9.842 7.568,-9.842 4.465,0 6.377,2.217 6.377,5.35 h -3.604 c 0,-1.385 -0.693,-3.049 -2.773,-3.049 -3.299,0 -3.992,3.549 -3.992,7.541 0,3.492 0.693,7.596 4.574,7.596 1.553,0 2.469,-0.416 2.773,-0.748 v -6.1 h -3.604 v -2.301 h 6.848 v 9.703 z"
           id="path1327"
           inkscape:connector-curvature="0" />
        <path
           fill="#EE8730"
           d="m 323.756,328.666 h 3.908 l 6.516,19.129 h -3.383 l -1.662,-5.184 h -6.877 l -1.662,5.184 h -3.383 z m -0.721,11.476 h 5.322 l -2.633,-8.4 h -0.057 z"
           id="path1329"
           inkscape:connector-curvature="0" />
        <path
           fill="#EE8730"
           d="m 336.119,328.666 h 3.244 v 19.129 h -3.244 z"
           id="path1331"
           inkscape:connector-curvature="0" />
        <path
           fill="#EE8730"
           d="m 343.383,328.666 h 3.992 l 7.375,14.084 h 0.055 v -14.084 h 2.967 v 19.129 h -3.633 l -7.734,-14.777 h -0.055 v 14.777 h -2.967 z"
           id="path1333"
           inkscape:connector-curvature="0" />
      </g>
      <path
         fill="url(#SVGID_1_)"
         d="m 95.248281,144.89054 c -0.439737,-0.64188 -1.767946,-0.10583 -3.028685,0.93028 0.848783,-0.53737 1.606021,-0.68845 1.848908,-0.1696 0.463021,0.99113 -1.078971,3.51049 -3.044296,4.98686 -0.308769,0.23151 -0.595312,0.40826 -0.85381,0.53473 0.456935,-0.0744 1.059921,-0.34978 1.763183,-0.86202 2.288911,-1.66687 3.987271,-4.43785 3.3147,-5.42025 z"
         id="path1348"
         inkscape:connector-curvature="0"
         style="fill:url(#SVGID_1_);stroke-width:0.264583" />
      <g
         id="g1376"
         transform="matrix(0.26458333,0,0,0.26458333,27.482404,58.94091)">
        <linearGradient
           id="linearGradient216"
           gradientUnits="userSpaceOnUse"
           x1="247.7114"
           y1="345.97119"
           x2="256.1777"
           y2="345.97119">
          <stop
             offset="0"
             style="stop-color:#EE8730"
             id="stop206" />
          <stop
             offset="0.1678"
             style="stop-color:#EC8133"
             id="stop208" />
          <stop
             offset="0.4149"
             style="stop-color:#E8703B"
             id="stop210" />
          <stop
             offset="0.7091"
             style="stop-color:#E25242"
             id="stop212" />
          <stop
             offset="1"
             style="stop-color:#DC2846"
             id="stop214" />
        </linearGradient>
        <path
           fill="url(#SVGID_2_)"
           d="m 247.711,342.53 2.87,2.714 -0.927,0.984 -0.07,0.07 -1.084,1.145 1.529,0.369 1.107,0.268 0.319,1.072 0.446,1.512 1.085,-1.139 0.071,-0.078 h 0.001 l 0.926,-0.977 0.96,0.908 1.232,-1.303 -7.184,-6.797 c -0.414,0.425 -0.843,0.841 -1.281,1.252 z"
           id="path1361"
           inkscape:connector-curvature="0"
           style="fill:url(#SVGID_2_)" />
        <linearGradient
           id="linearGradient229"
           gradientUnits="userSpaceOnUse"
           x1="234.4873"
           y1="334.48291"
           x2="246.8013"
           y2="334.48291">
          <stop
             offset="0"
             style="stop-color:#EE8730"
             id="stop219" />
          <stop
             offset="0.1678"
             style="stop-color:#EC8133"
             id="stop221" />
          <stop
             offset="0.4149"
             style="stop-color:#E8703B"
             id="stop223" />
          <stop
             offset="0.7091"
             style="stop-color:#E25242"
             id="stop225" />
          <stop
             offset="1"
             style="stop-color:#DC2846"
             id="stop227" />
        </linearGradient>
        <path
           fill="url(#SVGID_3_)"
           d="m 237.945,335.08 1.158,3.398 1.672,-2.508 4.895,4.629 c 0.392,-0.462 0.77,-0.927 1.131,-1.395 l -3.955,-3.742 1.84,-0.023 -2.226,-2.818 1.059,-3.434 -3.369,1.25 -2.934,-2.07 0.144,3.59 -2.873,2.152 z m 0.473,-4.518 1.576,1.111 1.807,-0.67 -0.564,1.842 1.193,1.51 -1.926,0.031 -1.072,1.605 -0.623,-1.824 -1.857,-0.521 1.543,-1.158 z"
           id="path1374"
           inkscape:connector-curvature="0"
           style="fill:url(#SVGID_3_)" />
      </g>
    </g>
    <g
       transform="matrix(0.88906783,0,0,0.88906783,68.638046,17.435178)"
       id="g492">
      <g
         transform="translate(-60.498799,6.5724264)"
         id="g536">
        <g
           transform="matrix(0.1180057,0,0,0.1180057,65.574313,106.56239)"
           id="g5521">
          <g
             transform="translate(4.9279371,0.6892395)"
             id="g5523">
            <path
               inkscape:connector-curvature="0"
               id="path5525"
               d="m 207.59739,385.31472 c 0.0474,0.12025 0.0993,0.24305 0.15016,0.363 12.48852,22.38119 64.6052,14.84204 104.54488,-2.82107 -0.01,-0.0188 -0.0199,-0.0377 -0.0291,-0.0566 l 0.58331,-0.23043 -21.0235,-40.6148 c 14.40126,-6.33679 55.24508,-17.26781 76.33706,-2.22647 0.78175,0.55749 0.15104,-4.75201 0.87617,-4.12161 4.80944,-7.22783 3.45951,-8.47863 0.79108,-17.7142 -1.36003,-2.14162 2.7076,-3.94509 0.79018,-5.54962 -17.01034,-14.23452 -54.72497,-8.07108 -91.32174,5.40075 l -0.0175,-0.0272 -4.39542,1.73636 21.16236,40.88013 c -19.26265,8.23263 -64.88501,20.32711 -82.67116,2.06785 -4.73429,7.11491 -8.76039,15.3378 -5.77671,22.9139 z"
               style="fill:#298f9b;fill-opacity:1;stroke:none"
               inkscape:export-filename="/Users/macias/Documents/SIR/logo/sir-2-boton.png"
               inkscape:export-xdpi="90"
               inkscape:export-ydpi="90"
               sodipodi:nodetypes="ccccccsccsccccccc" />
            <path
               inkscape:connector-curvature="0"
               sodipodi:nodetypes="ccccc"
               id="path5527"
               d="m 280.16395,346.67775 c -4.12679,-7.88435 -8.39551,-16.12795 -12.52228,-24.01227 -25.46085,10.45233 -67.19261,38.85816 -60.3921,62.10987 2.86626,7.82997 11.27475,11.28994 19.72543,13.27958 0.67967,-22.43543 35.3952,-44.40211 53.18895,-51.37718 z"
               style="fill:#ffcc00;fill-opacity:1;stroke:none"
               inkscape:export-filename="/Users/macias/Documents/SIR/logo/sir-2-boton.png"
               inkscape:export-xdpi="90"
               inkscape:export-ydpi="90" />
            <path
               inkscape:connector-curvature="0"
               sodipodi:nodetypes="ccccc"
               id="path5529"
               d="m 306.37442,355.43464 c 4.12679,7.88434 9.07695,16.12795 13.20372,24.01229 26.12491,-13.36942 62.6967,-38.04727 56.40851,-60.64495 -3.29678,-7.42345 -11.05257,-11.12239 -19.50324,-13.11201 -1.25862,22.38464 -32.47484,40.59708 -50.10899,49.74467 z"
               style="fill:#ffcc00;fill-opacity:1;stroke:none"
               inkscape:export-filename="/Users/macias/Documents/SIR/logo/sir-2-boton.png"
               inkscape:export-xdpi="90"
               inkscape:export-ydpi="90" />
          </g>
          <path
             inkscape:export-ydpi="90"
             inkscape:export-xdpi="90"
             inkscape:export-filename="/Users/macias/Documents/SIR/logo/sir-2-boton.png"
             inkscape:connector-curvature="0"
             id="path5531"
             style="font-style:normal;font-variant:normal;font-weight:bold;font-stretch:normal;font-size:83px;line-height:526%;font-family:'Helvetica Neue';-inkscape-font-specification:'Helvetica Neue Bold';text-align:start;writing-mode:lr-tb;text-anchor:start;fill:#333333;fill-opacity:1;stroke:none"
             d="m 467.91695,331.51054 v 20.06184 h 9.98161 c 3.82494,3e-5 6.70676,-0.84535 8.64549,-2.53612 1.96484,-1.71595 2.94727,-4.22683 2.94732,-7.53266 -5e-5,-3.30573 -0.98248,-5.79138 -2.94732,-7.45694 -1.93873,-1.69069 -4.82055,-2.53607 -8.64549,-2.53612 h -9.98161 m 19.88461,23.73353 c 1.70287,0.5552 3.35337,1.74124 4.95151,3.55814 1.62426,1.81695 3.24856,4.3152 4.87291,7.4948 l 8.05602,15.44383 h -8.52759 l -7.50586,-14.49753 c -1.93871,-3.78523 -3.825,-6.29611 -5.65885,-7.53264 -1.80773,-1.2365 -4.28348,-1.85476 -7.42727,-1.85477 h -8.64548 v 23.88494 h -7.93813 v -56.51381 h 17.91974 c 6.70676,5e-5 11.71066,1.35013 15.01171,4.05022 3.30095,2.70019 4.95145,6.77564 4.95149,12.22635 -4e-5,3.55818 -0.86458,6.51068 -2.59364,8.8575 -1.70294,2.34689 -4.19179,3.97454 -7.46656,4.88297" />
          <path
             inkscape:export-ydpi="90"
             inkscape:export-xdpi="90"
             inkscape:export-filename="/Users/macias/Documents/SIR/logo/sir-2-boton.png"
             inkscape:connector-curvature="0"
             style="font-style:normal;font-variant:normal;font-weight:bold;font-stretch:normal;font-size:83px;line-height:526%;font-family:'Helvetica Neue';-inkscape-font-specification:'Helvetica Neue Bold';text-align:start;writing-mode:lr-tb;text-anchor:start;fill:#333333;fill-opacity:1;stroke:none"
             d="m 436.24305,325.22703 h 7.93812 v 56.51381 h -7.93812 v -56.51381"
             id="path5533" />
          <path
             inkscape:export-ydpi="90"
             inkscape:export-xdpi="90"
             inkscape:export-filename="/Users/macias/Documents/SIR/logo/sir-2-boton.png"
             inkscape:connector-curvature="0"
             style="font-style:normal;font-variant:normal;font-weight:bold;font-stretch:normal;font-size:83px;line-height:526%;font-family:'Helvetica Neue';-inkscape-font-specification:'Helvetica Neue Bold';text-align:start;writing-mode:lr-tb;text-anchor:start;fill:#333333;fill-opacity:1;stroke:none"
             d="m 420.3275,327.08179 v 7.45695 c -3.01287,-1.38787 -5.8554,-2.42251 -8.5276,-3.1039 -2.67226,-0.68131 -5.25282,-1.02197 -7.74164,-1.02202 -4.32276,5e-5 -7.66306,0.80757 -10.0209,2.42255 -2.33167,1.6151 -3.4975,3.91148 -3.49749,6.88917 -1e-5,2.49829 0.77284,4.39093 2.31856,5.67788 1.57189,1.26179 4.53231,2.2838 8.88127,3.06606 l 4.79432,0.9463 c 5.92081,1.08514 10.28284,3.003 13.08612,5.75358 2.82938,2.7254 4.2441,6.38448 4.24415,10.97724 -5e-5,5.476 -1.91254,9.62716 -5.73747,12.45348 -3.79881,2.82632 -9.37907,4.23948 -16.74079,4.23948 -2.77706,0 -5.73749,-0.30282 -8.88127,-0.90846 -3.11763,-0.60564 -6.35313,-1.50148 -9.70653,-2.68753 v -7.87332 c 3.2224,1.74122 6.37931,3.05345 9.47074,3.93667 3.0914,0.88322 6.13041,1.32483 9.11706,1.32483 4.53229,0 8.02978,-0.85798 10.49247,-2.57397 2.46261,-1.71597 3.69394,-4.16377 3.69398,-7.34339 -4e-5,-2.77584 -0.89079,-4.94605 -2.67224,-6.51063 -1.75534,-1.56455 -4.65025,-2.73799 -8.68478,-3.52029 l -4.83362,-0.90846 c -5.92086,-1.13555 -10.2043,-2.91462 -12.85033,-5.3372 -2.64605,-2.42253 -3.96906,-5.79141 -3.96906,-10.10663 0,-4.99648 1.82078,-8.93315 5.46237,-11.80999 3.66776,-2.87674 8.71096,-4.31513 15.1296,-4.31519 2.75081,6e-5 5.55404,0.2398 8.40969,0.7192 2.8556,0.47953 5.77673,1.19873 8.76339,2.15759"
             id="path5535" />
        </g>
        <g
           transform="translate(41.480763,59.992458)"
           style="font-style:normal;font-variant:normal;font-weight:normal;font-stretch:normal;font-size:1.41607px;line-height:0%;font-family:'Apple SD Gothic Neo';-inkscape-font-specification:'Apple SD Gothic Neo';text-align:start;letter-spacing:0px;word-spacing:0px;writing-mode:lr-tb;text-anchor:start;fill:#298f9b;fill-opacity:1;stroke:none;stroke-width:0.118006"
           id="text5537"
           aria-label="2">
          <path
             inkscape:connector-curvature="0"
             id="path95"
             style="font-style:normal;font-variant:normal;font-weight:normal;font-stretch:normal;font-size:9.52711px;line-height:125%;font-family:'Apple SD Gothic Neo';-inkscape-font-specification:'Apple SD Gothic Neo';text-align:start;writing-mode:lr-tb;text-anchor:start;fill:#298f9b;fill-opacity:1;stroke-width:0.118006"
             d="m 84.759229,91.636589 h 3.972805 v -0.647843 h -2.915295 l 1.000346,-1.009874 c 1.105145,-1.124199 1.772043,-1.886368 1.772043,-2.991512 0,-1.143254 -0.695479,-1.857787 -1.981639,-1.857787 -0.724061,0 -1.371904,0.323922 -1.772043,0.581154 l 0.219124,0.600208 c 0.371557,-0.257232 0.886021,-0.523991 1.429066,-0.523991 0.905076,0 1.314742,0.419193 1.314742,1.267105 0,0.914603 -0.609736,1.610082 -1.514811,2.553266 l -1.524338,1.5815 z" />
        </g>
      </g>
      <g
         style="font-style:normal;font-weight:normal;font-size:5.55471px;line-height:1.25;font-family:sans-serif;fill:#000000;fill-opacity:1;stroke:none;stroke-width:0.138867"
         id="text540"
         aria-label="IdP integrado en
las federaciones">
        <path
           id="path562"
           style="font-weight:normal;stroke-width:0.138867"
           d="m -24.49337,152.95033 h -1.594809 v -0.41226 h 0.528891 v -3.21403 h -0.528891 v -0.41226 h 1.594809 v 0.41226 h -0.528891 v 3.21403 h 0.528891 z" />
        <path
           id="path564"
           style="font-weight:normal;stroke-width:0.138867"
           d="m -21.157289,152.95033 h -0.509905 V 152.633 q -0.219693,0.18986 -0.458372,0.29563 -0.238679,0.10578 -0.518042,0.10578 -0.542452,0 -0.862499,-0.41769 -0.317334,-0.41768 -0.317334,-1.15813 0,-0.38514 0.10849,-0.6862 0.111203,-0.30106 0.298349,-0.51262 0.184434,-0.20613 0.428537,-0.31462 0.246816,-0.10849 0.509905,-0.10849 0.238679,0 0.423113,0.0515 0.184433,0.0488 0.387853,0.1546 v -1.31274 h 0.509905 z m -0.509905,-0.74587 v -1.73856 q -0.206132,-0.0922 -0.368867,-0.12747 -0.162736,-0.0353 -0.355307,-0.0353 -0.428537,0 -0.667216,0.29834 -0.238679,0.29835 -0.238679,0.84623 0,0.53974 0.184434,0.82182 0.184434,0.27936 0.591273,0.27936 0.216981,0 0.439386,-0.0949 0.222405,-0.0976 0.414976,-0.24953 z" />
        <path
           id="path566"
           style="font-weight:normal;stroke-width:0.138867"
           d="m -17.471326,150.13229 q 0,0.26852 -0.09493,0.49906 -0.09222,0.22783 -0.260377,0.39599 -0.208844,0.20884 -0.493631,0.31462 -0.284787,0.10307 -0.718749,0.10307 h -0.537028 v 1.5053 h -0.537027 v -4.03855 h 1.095753 q 0.363443,0 0.615683,0.0624 0.25224,0.0597 0.447523,0.18986 0.230542,0.1546 0.355306,0.38514 0.127477,0.23054 0.127477,0.58313 z m -0.558726,0.0136 q 0,-0.20885 -0.07323,-0.36345 -0.07323,-0.1546 -0.222405,-0.25224 -0.130189,-0.0841 -0.298349,-0.11934 -0.165448,-0.038 -0.420401,-0.038 h -0.531603 v 1.6138 h 0.452948 q 0.325471,0 0.528891,-0.057 0.203419,-0.0597 0.330895,-0.18715 0.127477,-0.13019 0.17901,-0.27394 0.05424,-0.14375 0.05424,-0.32275 z" />
        <path
           id="path568"
           style="font-weight:normal;stroke-width:0.138867"
           d="m -14.300694,149.41354 h -0.574999 v -0.52889 h 0.574999 z m -0.03255,3.53679 h -0.509905 v -3.02959 h 0.509905 z" />
        <path
           id="path570"
           style="font-weight:normal;stroke-width:0.138867"
           d="m -10.785604,152.95033 h -0.509905 v -1.725 q 0,-0.20884 -0.02441,-0.39056 -0.02441,-0.18443 -0.0895,-0.2875 -0.06781,-0.11392 -0.195282,-0.16816 -0.127477,-0.057 -0.330896,-0.057 -0.208844,0 -0.436674,0.10307 -0.22783,0.10306 -0.436674,0.26309 v 2.26202 h -0.509905 v -3.02959 h 0.509905 v 0.33632 q 0.238679,-0.198 0.493631,-0.3092 0.254953,-0.1112 0.523467,-0.1112 0.490919,0 0.748584,0.29563 0.257664,0.29564 0.257664,0.85165 z" />
        <path
           id="path572"
           style="font-weight:normal;stroke-width:0.138867"
           d="m -8.2306549,152.92321 q -0.1437498,0.038 -0.3146223,0.0624 -0.1681601,0.0244 -0.3010609,0.0244 -0.4637966,0 -0.7051878,-0.24953 -0.2413912,-0.24952 -0.2413912,-0.80011 v -1.61109 h -0.3444569 v -0.42853 h 0.3444569 v -0.87064 h 0.509905 v 0.87064 h 1.0523572 v 0.42853 h -1.0523572 v 1.38055 q 0,0.23867 0.010849,0.37429 0.010849,0.1329 0.075943,0.24953 0.05967,0.10849 0.1627356,0.16002 0.1057782,0.0488 0.3200468,0.0488 0.124764,0 0.260377,-0.0353 0.135613,-0.038 0.1952828,-0.0624 h 0.027123 z" />
        <path
           id="path574"
           style="font-weight:normal;stroke-width:0.138867"
           d="m -5.076295,151.48842 h -2.2321906 q 0,0.27937 0.08408,0.48821 0.08408,0.20613 0.2305421,0.33903 0.1410376,0.13019 0.3336081,0.19529 0.1952828,0.0651 0.4285372,0.0651 0.3091977,0 0.6211077,-0.12205 0.3146222,-0.12477 0.447523,-0.2441 h 0.027123 v 0.55601 q -0.2576647,0.10849 -0.5261786,0.18172 -0.2685138,0.0732 -0.5641502,0.0732 -0.7540085,0 -1.1771211,-0.40684 -0.4231127,-0.40955 -0.4231127,-1.16085 0,-0.74315 0.4041269,-1.17983 0.4068391,-0.43667 1.0686307,-0.43667 0.6129709,0 0.9438667,0.35802 0.3336081,0.35801 0.3336081,1.01709 z m -0.4963437,-0.39056 q -0.00271,-0.40142 -0.2034196,-0.62111 -0.197995,-0.21969 -0.6048341,-0.21969 -0.4095514,0 -0.6536549,0.24139 -0.2413912,0.24139 -0.2739383,0.59941 z" />
        <path
           id="path576"
           style="font-weight:normal;stroke-width:0.138867"
           d="m -1.8459925,152.60588 q 0,0.77028 -0.3498817,1.13101 -0.3498816,0.36073 -1.0767675,0.36073 -0.2413912,0 -0.4719333,-0.0353 -0.2278299,-0.0326 -0.4502353,-0.0949 v -0.52075 h 0.027123 q 0.124764,0.0488 0.3959901,0.11934 0.271226,0.0732 0.5424521,0.0732 0.260377,0 0.4312494,-0.0624 0.1708725,-0.0624 0.2658016,-0.17358 0.094929,-0.10578 0.135613,-0.25495 0.040684,-0.14918 0.040684,-0.33361 v -0.27665 q -0.2305421,0.18443 -0.4420985,0.27665 -0.208844,0.0895 -0.5343153,0.0895 -0.5424522,0 -0.8624989,-0.39056 -0.3173345,-0.39328 -0.3173345,-1.1066 0,-0.39057 0.1084904,-0.67264 0.1112027,-0.28479 0.301061,-0.49092 0.1762969,-0.19257 0.4285371,-0.29835 0.2522403,-0.10849 0.5017683,-0.10849 0.2630893,0 0.4393862,0.0542 0.1790092,0.0515 0.3770042,0.16003 l 0.032547,-0.13019 h 0.4773579 z m -0.5099051,-0.48821 v -1.65177 q -0.2034195,-0.0922 -0.3797165,-0.13019 -0.1735846,-0.0407 -0.3471693,-0.0407 -0.4204004,0 -0.6617916,0.28207 -0.2413912,0.28208 -0.2413912,0.81911 0,0.5099 0.1790092,0.77299 0.1790092,0.26309 0.5939851,0.26309 0.2224053,0 0.4448107,-0.0841 0.2251177,-0.0868 0.4122636,-0.23054 z" />
        <path
           id="path578"
           style="font-weight:normal;stroke-width:0.138867"
           d="m 1.047989,150.47675 h -0.027123 q -0.11391495,-0.0271 -0.22240538,-0.038 -0.10577816,-0.0136 -0.25224024,-0.0136 -0.23596668,0 -0.4556598,0.10578 -0.21969312,0.10306 -0.42311267,0.26851 v 2.15082 H -0.8424567 v -3.02959 h 0.50990501 v 0.44752 q 0.3037732,-0.2441 0.53431536,-0.34446 0.23325442,-0.10306 0.47464562,-0.10306 0.13290078,0 0.19257051,0.008 0.0596697,0.005 0.1790092,0.0244 z" />
        <path
           id="path580"
           style="font-weight:normal;stroke-width:0.138867"
           d="M 3.8877259,152.95033 H 3.3805332 v -0.32276 q -0.067807,0.0461 -0.1844338,0.13019 -0.1139149,0.0814 -0.2224053,0.13019 -0.1274763,0.0624 -0.2929242,0.10307 -0.1654479,0.0434 -0.3878533,0.0434 -0.4095513,0 -0.6943387,-0.27122 -0.2847874,-0.27123 -0.2847874,-0.69163 0,-0.34446 0.1464621,-0.55601 0.1491743,-0.21427 0.4231127,-0.33632 0.2766505,-0.12206 0.6645038,-0.16545 0.3878533,-0.0434 0.8326641,-0.0651 v -0.0786 q 0,-0.17359 -0.062382,-0.2875 -0.05967,-0.11392 -0.1735847,-0.17901 -0.1084905,-0.0624 -0.260377,-0.0841 -0.1518866,-0.0217 -0.3173346,-0.0217 -0.2007072,0 -0.447523,0.0542 -0.2468157,0.0515 -0.509905,0.15188 h -0.027123 v -0.51804 q 0.1491744,-0.0407 0.4312495,-0.0895 0.2820751,-0.0488 0.5560134,-0.0488 0.3200468,0 0.5560135,0.0542 0.2386789,0.0515 0.4122636,0.17901 0.1708724,0.12476 0.260377,0.32276 0.089505,0.19799 0.089505,0.49092 z m -0.5071927,-0.74587 v -0.84351 q -0.2332545,0.0136 -0.550589,0.0407 -0.3146222,0.0271 -0.4990559,0.0787 -0.2196931,0.0624 -0.3553062,0.19528 -0.135613,0.13019 -0.135613,0.36073 0,0.26038 0.1573111,0.39328 0.1573111,0.13019 0.4800701,0.13019 0.2685139,0 0.4909192,-0.10307 0.2224054,-0.10578 0.4122637,-0.25224 z" />
        <path
           id="path582"
           style="font-weight:normal;stroke-width:0.138867"
           d="M 7.3322969,152.95033 H 6.8223919 V 152.633 q -0.2196932,0.18986 -0.4583721,0.29563 -0.2386789,0.10578 -0.5180418,0.10578 -0.5424521,0 -0.8624989,-0.41769 -0.3173345,-0.41768 -0.3173345,-1.15813 0,-0.38514 0.1084904,-0.6862 0.1112027,-0.30106 0.2983487,-0.51262 0.1844337,-0.20613 0.4285372,-0.31462 0.2468157,-0.10849 0.509905,-0.10849 0.2386789,0 0.4231127,0.0515 0.1844337,0.0488 0.3878533,0.1546 v -1.31274 h 0.509905 z m -0.509905,-0.74587 v -1.73856 q -0.2061319,-0.0922 -0.3688675,-0.12747 -0.1627356,-0.0353 -0.3553062,-0.0353 -0.4285371,0 -0.6672161,0.29834 -0.2386789,0.29835 -0.2386789,0.84623 0,0.53974 0.1844337,0.82182 0.1844337,0.27936 0.5912728,0.27936 0.2169809,0 0.4393863,-0.0949 0.2224053,-0.0976 0.4149759,-0.24953 z" />
        <path
           id="path584"
           style="font-weight:normal;stroke-width:0.138867"
           d="m 10.917905,151.43689 q 0,0.74045 -0.379717,1.16899 -0.379716,0.42853 -1.0170974,0.42853 -0.6428057,0 -1.0225222,-0.42853 -0.3770043,-0.42854 -0.3770043,-1.16899 0,-0.74045 0.3770043,-1.16898 0.3797165,-0.43125 1.0225222,-0.43125 0.6373814,0 1.0170974,0.43125 0.379717,0.42853 0.379717,1.16898 z m -0.526179,0 q 0,-0.58856 -0.230542,-0.87335 -0.230542,-0.2875 -0.6400934,-0.2875 -0.4149758,0 -0.645518,0.2875 -0.2278299,0.28479 -0.2278299,0.87335 0,0.56958 0.2305422,0.86521 0.2305421,0.29293 0.6428057,0.29293 0.4068391,0 0.6373814,-0.29022 0.233254,-0.29292 0.233254,-0.86792 z" />
        <path
           id="path586"
           style="font-weight:normal;stroke-width:0.138867"
           d="m 16.198678,151.48842 h -2.232191 q 0,0.27937 0.08408,0.48821 0.08408,0.20613 0.230543,0.33903 0.141037,0.13019 0.333608,0.19529 0.195282,0.0651 0.428537,0.0651 0.309198,0 0.621108,-0.12205 0.314622,-0.12477 0.447523,-0.2441 h 0.02712 v 0.55601 q -0.257665,0.10849 -0.526178,0.18172 -0.268514,0.0732 -0.564151,0.0732 -0.754008,0 -1.177121,-0.40684 -0.423112,-0.40955 -0.423112,-1.16085 0,-0.74315 0.404126,-1.17983 0.406839,-0.43667 1.068631,-0.43667 0.612971,0 0.943867,0.35802 0.333608,0.35801 0.333608,1.01709 z m -0.496344,-0.39056 q -0.0027,-0.40142 -0.203419,-0.62111 -0.197995,-0.21969 -0.604835,-0.21969 -0.409551,0 -0.653654,0.24139 -0.241392,0.24139 -0.273939,0.59941 z" />
        <path
           id="path588"
           style="font-weight:normal;stroke-width:0.138867"
           d="m 19.504926,152.95033 h -0.509905 v -1.725 q 0,-0.20884 -0.02441,-0.39056 -0.02441,-0.18443 -0.0895,-0.2875 -0.06781,-0.11392 -0.195283,-0.16816 -0.127476,-0.057 -0.330896,-0.057 -0.208844,0 -0.436674,0.10307 -0.22783,0.10306 -0.436674,0.26309 v 2.26202 h -0.509905 v -3.02959 h 0.509905 v 0.33632 q 0.238679,-0.198 0.493632,-0.3092 0.254952,-0.1112 0.523466,-0.1112 0.490919,0 0.748584,0.29563 0.257665,0.29564 0.257665,0.85165 z" />
        <path
           id="path590"
           style="font-weight:normal;stroke-width:0.138867"
           d="m -25.442661,159.89372 h -0.509905 v -4.22028 h 0.509905 z" />
        <path
           id="path592"
           style="font-weight:normal;stroke-width:0.138867"
           d="m -22.074033,159.89372 h -0.507193 v -0.32276 q -0.06781,0.0461 -0.184434,0.13019 -0.113915,0.0814 -0.222405,0.13019 -0.127476,0.0624 -0.292924,0.10306 -0.165448,0.0434 -0.387853,0.0434 -0.409552,0 -0.694339,-0.27123 -0.284788,-0.27122 -0.284788,-0.69162 0,-0.34446 0.146462,-0.55602 0.149175,-0.21426 0.423113,-0.33632 0.276651,-0.12205 0.664504,-0.16544 0.387853,-0.0434 0.832664,-0.0651 v -0.0786 q 0,-0.17359 -0.06238,-0.2875 -0.05967,-0.11392 -0.173585,-0.17901 -0.10849,-0.0624 -0.260377,-0.0841 -0.151886,-0.0217 -0.317334,-0.0217 -0.200707,0 -0.447523,0.0542 -0.246816,0.0515 -0.509905,0.15189 h -0.02712 v -0.51804 q 0.149175,-0.0407 0.43125,-0.0895 0.282075,-0.0488 0.556013,-0.0488 0.320047,0 0.556014,0.0542 0.238679,0.0515 0.412263,0.17901 0.170873,0.12476 0.260377,0.32276 0.0895,0.19799 0.0895,0.49092 z m -0.507193,-0.74587 v -0.84351 q -0.233254,0.0136 -0.550589,0.0407 -0.314622,0.0271 -0.499056,0.0786 -0.219693,0.0624 -0.355306,0.19529 -0.135613,0.13019 -0.135613,0.36073 0,0.26038 0.157311,0.39328 0.157311,0.13018 0.48007,0.13018 0.268514,0 0.490919,-0.10306 0.222406,-0.10578 0.412264,-0.25224 z" />
        <path
           id="path594"
           style="font-weight:normal;stroke-width:0.138867"
           d="m -18.922386,159.02037 q 0,0.41498 -0.344457,0.68078 -0.341745,0.2658 -0.93573,0.2658 -0.33632,0 -0.618395,-0.0787 -0.279363,-0.0814 -0.469221,-0.1763 v -0.57229 h 0.02712 q 0.241391,0.18172 0.537028,0.29021 0.295636,0.10578 0.566862,0.10578 0.336321,0 0.526179,-0.10849 0.189858,-0.10849 0.189858,-0.34174 0,-0.17901 -0.103066,-0.27123 -0.103066,-0.0922 -0.39599,-0.15731 -0.10849,-0.0244 -0.284787,-0.057 -0.173585,-0.0326 -0.317335,-0.0705 -0.398702,-0.10578 -0.566862,-0.30919 -0.165448,-0.20614 -0.165448,-0.50449 0,-0.18714 0.07594,-0.35259 0.07866,-0.16545 0.235967,-0.29564 0.151886,-0.12747 0.385141,-0.2007 0.235966,-0.076 0.526178,-0.076 0.271226,0 0.547877,0.0678 0.279363,0.0651 0.463797,0.16002 v 0.54517 h -0.02712 q -0.195283,-0.14375 -0.474646,-0.24139 -0.279362,-0.10036 -0.547876,-0.10036 -0.279363,0 -0.471934,0.10849 -0.19257,0.10578 -0.19257,0.31734 0,0.18714 0.116627,0.28207 0.113915,0.0949 0.368868,0.1546 0.141037,0.0325 0.314622,0.0651 0.176297,0.0325 0.292924,0.0597 0.355306,0.0814 0.547877,0.27936 0.19257,0.20071 0.19257,0.5316 z" />
        <path
           id="path596"
           style="font-weight:normal;stroke-width:0.138867"
           d="m -14.60718,156.16707 h -0.02712 q -0.08408,-0.0244 -0.219693,-0.0488 -0.135613,-0.0271 -0.238679,-0.0271 -0.328184,0 -0.477358,0.14646 -0.146462,0.14375 -0.146462,0.52347 v 0.10306 h 0.919456 v 0.42854 h -0.903183 v 2.60106 h -0.509905 v -2.60106 h -0.344457 v -0.42854 h 0.344457 v -0.10035 q 0,-0.53974 0.268514,-0.82724 0.268514,-0.29021 0.775707,-0.29021 0.170872,0 0.306485,0.0163 0.138325,0.0163 0.25224,0.038 z" />
        <path
           id="path598"
           style="font-weight:normal;stroke-width:0.138867"
           d="m -11.748456,158.43181 h -2.232191 q 0,0.27936 0.08408,0.48821 0.08408,0.20613 0.230543,0.33903 0.141037,0.13019 0.333608,0.19528 0.195282,0.0651 0.428537,0.0651 0.309198,0 0.621107,-0.12205 0.314623,-0.12477 0.447524,-0.24411 h 0.02712 v 0.55602 q -0.257665,0.10849 -0.526178,0.18172 -0.268514,0.0732 -0.564151,0.0732 -0.754008,0 -1.177121,-0.40684 -0.423112,-0.40955 -0.423112,-1.16085 0,-0.74316 0.404126,-1.17983 0.406839,-0.43668 1.068631,-0.43668 0.612971,0 0.943867,0.35802 0.333608,0.35802 0.333608,1.0171 z m -0.496344,-0.39056 q -0.0027,-0.40142 -0.203419,-0.62111 -0.197995,-0.21969 -0.604835,-0.21969 -0.409551,0 -0.653654,0.24139 -0.241392,0.24139 -0.273939,0.59941 z" />
        <path
           id="path600"
           style="font-weight:normal;stroke-width:0.138867"
           d="m -8.5181536,159.89372 h -0.5099051 v -0.31733 q -0.2196931,0.18985 -0.458372,0.29563 -0.238679,0.10578 -0.5180423,0.10578 -0.542452,0 -0.862498,-0.41769 -0.317335,-0.41769 -0.317335,-1.15813 0,-0.38514 0.108491,-0.68621 0.111202,-0.30106 0.298348,-0.51261 0.184434,-0.20613 0.428537,-0.31462 0.246816,-0.1085 0.5099054,-0.1085 0.2386789,0 0.4231127,0.0515 0.1844337,0.0488 0.3878532,0.1546 v -1.31274 h 0.5099051 z m -0.5099051,-0.74587 v -1.73856 q -0.2061318,-0.0922 -0.3688674,-0.12748 -0.1627357,-0.0353 -0.3553062,-0.0353 -0.4285367,0 -0.6672157,0.29835 -0.238679,0.29835 -0.238679,0.84623 0,0.53974 0.184433,0.82181 0.184434,0.27937 0.5912732,0.27937 0.2169809,0 0.4393863,-0.0949 0.2224053,-0.0976 0.4149758,-0.24953 z" />
        <path
           id="path602"
           style="font-weight:normal;stroke-width:0.138867"
           d="m -4.978654,158.43181 h -2.2321906 q 0,0.27936 0.08408,0.48821 0.08408,0.20613 0.2305421,0.33903 0.1410376,0.13019 0.3336081,0.19528 0.1952828,0.0651 0.4285372,0.0651 0.3091977,0 0.6211077,-0.12205 0.3146222,-0.12477 0.447523,-0.24411 h 0.027123 v 0.55602 q -0.2576648,0.10849 -0.5261786,0.18172 -0.2685138,0.0732 -0.5641502,0.0732 -0.7540085,0 -1.1771211,-0.40684 -0.4231127,-0.40955 -0.4231127,-1.16085 0,-0.74316 0.4041268,-1.17983 0.4068392,-0.43668 1.0686308,-0.43668 0.6129709,0 0.9438667,0.35802 0.3336081,0.35802 0.3336081,1.0171 z m -0.4963438,-0.39056 q -0.00271,-0.40142 -0.2034195,-0.62111 -0.197995,-0.21969 -0.6048341,-0.21969 -0.4095514,0 -0.6536549,0.24139 -0.2413912,0.24139 -0.2739383,0.59941 z" />
        <path
           id="path604"
           style="font-weight:normal;stroke-width:0.138867"
           d="m -2.315214,157.42014 h -0.027123 q -0.113915,-0.0271 -0.2224054,-0.038 -0.1057782,-0.0136 -0.2522403,-0.0136 -0.2359667,0 -0.4556598,0.10577 -0.2196931,0.10307 -0.4231126,0.26852 v 2.15082 h -0.509905 v -3.0296 h 0.509905 v 0.44753 q 0.3037732,-0.24411 0.5343153,-0.34446 0.2332544,-0.10307 0.4746456,-0.10307 0.1329008,0 0.1925706,0.008 0.05967,0.005 0.1790092,0.0244 z" />
        <path
           id="path606"
           style="font-weight:normal;stroke-width:0.138867"
           d="M 0.52452286,159.89372 H 0.01733011 v -0.32276 q -0.06780652,0.0461 -0.18443373,0.13019 -0.11391495,0.0814 -0.22240538,0.13019 -0.12747625,0.0624 -0.29292415,0.10306 -0.1654479,0.0434 -0.38785325,0.0434 -0.4095514,0 -0.6943388,-0.27123 -0.2847873,-0.27122 -0.2847873,-0.69162 0,-0.34446 0.146462,-0.55602 0.1491744,-0.21426 0.4231127,-0.33632 0.2766506,-0.12205 0.66450388,-0.16544 0.38785327,-0.0434 0.83266403,-0.0651 v -0.0786 q 0,-0.17359 -0.062382,-0.2875 -0.05966973,-0.11392 -0.17358468,-0.17901 -0.10849043,-0.0624 -0.26037703,-0.0841 -0.1518866,-0.0217 -0.3173345,-0.0217 -0.20070729,0 -0.447523,0.0542 -0.2468157,0.0515 -0.509905,0.15189 h -0.027123 v -0.51804 q 0.1491743,-0.0407 0.4312494,-0.0895 0.2820751,-0.0488 0.55601346,-0.0488 0.32004676,0 0.55601344,0.0542 0.23867895,0.0515 0.41226363,0.17901 0.17087242,0.12476 0.26037703,0.32276 0.0895046,0.19799 0.0895046,0.49092 z m -0.50719275,-0.74587 v -0.84351 q -0.23325442,0.0136 -0.55058892,0.0407 -0.31462224,0.0271 -0.49905599,0.0786 -0.2196931,0.0624 -0.3553061,0.19529 -0.1356131,0.13019 -0.1356131,0.36073 0,0.26038 0.1573112,0.39328 0.1573111,0.13018 0.4800701,0.13018 0.26851381,0 0.49091918,-0.10306 0.22240538,-0.10578 0.41226363,-0.25224 z" />
        <path
           id="path608"
           style="font-weight:normal;stroke-width:0.138867"
           d="m 3.752113,159.70386 q -0.2549525,0.12205 -0.4854947,0.18986 -0.2278299,0.0678 -0.4854947,0.0678 -0.3281835,0 -0.6021218,-0.0949 -0.2739384,-0.0976 -0.4692211,-0.29293 -0.1979951,-0.19528 -0.3064855,-0.49363 -0.1084904,-0.29835 -0.1084904,-0.69705 0,-0.74316 0.4068391,-1.16627 0.4095513,-0.42311 1.0794797,-0.42311 0.2603771,0 0.509905,0.0732 0.2522403,0.0732 0.4610844,0.17901 v 0.56686 h -0.027123 q -0.2332545,-0.18172 -0.4827824,-0.27936 -0.2468158,-0.0976 -0.4827825,-0.0976 -0.4339617,0 -0.6862019,0.29293 -0.249528,0.29021 -0.249528,0.85436 0,0.54788 0.2441035,0.84351 0.2468157,0.29293 0.6916264,0.29293 0.1545989,0 0.3146223,-0.0407 0.1600234,-0.0407 0.2874996,-0.10577 0.1112027,-0.057 0.2088441,-0.11934 0.097641,-0.0651 0.1545989,-0.11121 h 0.027123 z" />
        <path
           id="path610"
           style="font-weight:normal;stroke-width:0.138867"
           d="M 4.9563565,156.35693 H 4.3813572 v -0.52889 h 0.5749993 z m -0.032547,3.53679 h -0.509905 v -3.0296 h 0.509905 z" />
        <path
           id="path612"
           style="font-weight:normal;stroke-width:0.138867"
           d="m 8.5202685,158.38028 q 0,0.74045 -0.3797165,1.16898 -0.3797165,0.42854 -1.0170978,0.42854 -0.6428058,0 -1.0225223,-0.42854 -0.3770042,-0.42853 -0.3770042,-1.16898 0,-0.74045 0.3770042,-1.16899 0.3797165,-0.43125 1.0225223,-0.43125 0.6373813,0 1.0170978,0.43125 0.3797165,0.42854 0.3797165,1.16899 z m -0.5261786,0 q 0,-0.58856 -0.2305422,-0.87335 -0.2305421,-0.2875 -0.6400935,-0.2875 -0.4149759,0 -0.645518,0.2875 -0.2278299,0.28479 -0.2278299,0.87335 0,0.56957 0.2305421,0.86521 0.2305422,0.29292 0.6428058,0.29292 0.4068391,0 0.6373813,-0.29021 0.2332544,-0.29292 0.2332544,-0.86792 z" />
        <path
           id="path614"
           style="font-weight:normal;stroke-width:0.138867"
           d="m 11.845498,159.89372 h -0.509905 v -1.725 q 0,-0.20884 -0.02441,-0.39056 -0.02441,-0.18444 -0.0895,-0.2875 -0.06781,-0.11392 -0.195283,-0.16816 -0.127476,-0.057 -0.330896,-0.057 -0.208844,0 -0.436674,0.10307 -0.227829,0.10306 -0.4366735,0.26308 v 2.26203 H 9.3122464 v -3.0296 h 0.5099051 v 0.33633 q 0.2386785,-0.198 0.4936315,-0.3092 0.254952,-0.11121 0.523466,-0.11121 0.490919,0 0.748584,0.29564 0.257665,0.29564 0.257665,0.85165 z" />
        <path
           id="path616"
           style="font-weight:normal;stroke-width:0.138867"
           d="m 15.363301,158.43181 h -2.23219 q 0,0.27936 0.08408,0.48821 0.08408,0.20613 0.230542,0.33903 0.141037,0.13019 0.333608,0.19528 0.195283,0.0651 0.428537,0.0651 0.309198,0 0.621108,-0.12205 0.314622,-0.12477 0.447523,-0.24411 h 0.02712 v 0.55602 q -0.257664,0.10849 -0.526178,0.18172 -0.268514,0.0732 -0.56415,0.0732 -0.754009,0 -1.177122,-0.40684 -0.423112,-0.40955 -0.423112,-1.16085 0,-0.74316 0.404127,-1.17983 0.406839,-0.43668 1.06863,-0.43668 0.612971,0 0.943867,0.35802 0.333608,0.35802 0.333608,1.0171 z m -0.496344,-0.39056 q -0.0027,-0.40142 -0.203419,-0.62111 -0.197995,-0.21969 -0.604834,-0.21969 -0.409552,0 -0.653655,0.24139 -0.241391,0.24139 -0.273938,0.59941 z" />
        <path
           id="path618"
           style="font-weight:normal;stroke-width:0.138867"
           d="m 18.300681,159.02037 q 0,0.41498 -0.344457,0.68078 -0.341745,0.2658 -0.93573,0.2658 -0.33632,0 -0.618395,-0.0787 -0.279363,-0.0814 -0.469221,-0.1763 v -0.57229 H 15.96 q 0.241392,0.18172 0.537028,0.29021 0.295636,0.10578 0.566863,0.10578 0.33632,0 0.526178,-0.10849 0.189858,-0.10849 0.189858,-0.34174 0,-0.17901 -0.103066,-0.27123 -0.103065,-0.0922 -0.39599,-0.15731 -0.10849,-0.0244 -0.284787,-0.057 -0.173585,-0.0326 -0.317335,-0.0705 -0.398702,-0.10578 -0.566862,-0.30919 -0.165448,-0.20614 -0.165448,-0.50449 0,-0.18714 0.07594,-0.35259 0.07866,-0.16545 0.235967,-0.29564 0.151887,-0.12747 0.385141,-0.2007 0.235967,-0.076 0.526179,-0.076 0.271226,0 0.547876,0.0678 0.279363,0.0651 0.463797,0.16002 v 0.54517 h -0.02712 q -0.195282,-0.14375 -0.474645,-0.24139 -0.279363,-0.10036 -0.547877,-0.10036 -0.279363,0 -0.471933,0.10849 -0.192571,0.10578 -0.192571,0.31734 0,0.18714 0.116627,0.28207 0.113915,0.0949 0.368868,0.1546 0.141037,0.0325 0.314622,0.0651 0.176297,0.0325 0.292924,0.0597 0.355306,0.0814 0.547877,0.27936 0.19257,0.20071 0.19257,0.5316 z" />
      </g>
    </g>
  </g>
</svg>
