<?xml version="1.0" encoding="UTF-8" standalone="no"?>
<!-- Created with Inkscape (http://www.inkscape.org/) -->

<svg
   width="85.368759mm"
   height="30.085354mm"
   viewBox="0 0 85.368759 30.085354"
   version="1.1"
   id="svg1391"
   inkscape:version="1.1 (c4e8f9e, 2021-05-24)"
   sodipodi:docname="idpnube-on-prem.svg"
   xmlns:inkscape="http://www.inkscape.org/namespaces/inkscape"
   xmlns:sodipodi="http://sodipodi.sourceforge.net/DTD/sodipodi-0.dtd"
   xmlns="http://www.w3.org/2000/svg"
   xmlns:svg="http://www.w3.org/2000/svg">
  <sodipodi:namedview
     id="namedview1393"
     pagecolor="#ffffff"
     bordercolor="#666666"
     borderopacity="1.0"
     inkscape:pageshadow="2"
     inkscape:pageopacity="0.0"
     inkscape:pagecheckerboard="0"
     inkscape:document-units="mm"
     showgrid="false"
     inkscape:zoom="1.2178231"
     inkscape:cx="133.02425"
     inkscape:cy="73.081221"
     inkscape:window-width="1381"
     inkscape:window-height="714"
     inkscape:window-x="0"
     inkscape:window-y="25"
     inkscape:window-maximized="0"
     inkscape:current-layer="layer1"
     fit-margin-top="0"
     fit-margin-left="0"
     fit-margin-right="0"
     fit-margin-bottom="0" />
  <defs
     id="defs1388" />
  <g
     inkscape:label="Layer 1"
     inkscape:groupmode="layer"
     id="layer1"
     transform="translate(-89.056691,-135.50386)">
    <g
       id="g2367">
      <g
         aria-label="nube"
         id="text929"
         style="font-size:11.7846px;line-height:51.8%;letter-spacing:0px;word-spacing:0px;fill:#008080;stroke-width:0.294615px">
        <path
           d="m 140.31869,142.26955 v 4.28959 h -0.35354 v -4.25424 q 0,-0.71886 -0.24748,-1.28452 -0.23569,-0.57744 -0.64815,-0.97812 -0.41246,-0.40068 -0.96634,-0.6128 -0.54209,-0.22391 -1.15489,-0.22391 -0.60101,0 -1.15489,0.24748 -0.55387,0.23569 -0.9899,0.64815 -0.42425,0.40068 -0.68351,0.94277 -0.25926,0.53031 -0.25926,1.13132 v 4.38387 h -0.35354 v -7.45965 h 0.35354 v 1.61449 q 0.23569,-0.42424 0.56566,-0.75421 0.34175,-0.34176 0.74243,-0.56566 0.41246,-0.2357 0.86028,-0.35354 0.45959,-0.12963 0.93098,-0.12963 0.71886,0 1.33166,0.24747 0.62458,0.24748 1.0724,0.6953 0.44781,0.44781 0.69529,1.06061 0.25926,0.6128 0.25926,1.35523 z"
           style="font-weight:200;font-family:Adequate;-inkscape-font-specification:'Adequate Ultra-Light'"
           id="path2204" />
        <path
           d="m 148.89107,146.54736 h -0.35354 l 0.0118,-1.60271 q -0.24747,0.42425 -0.58923,0.75422 -0.34175,0.32997 -0.75421,0.56566 -0.40068,0.22391 -0.84849,0.34175 -0.43603,0.12963 -0.87206,0.12963 -0.74243,0 -1.36702,-0.23569 -0.62458,-0.23569 -1.08418,-0.67172 -0.44782,-0.44782 -0.70708,-1.0724 -0.24747,-0.63637 -0.24747,-1.41415 v -4.25424 h 0.35353 v 4.25424 q 0,0.71886 0.25927,1.2963 0.25926,0.56566 0.6835,0.96634 0.42425,0.40068 0.96634,0.62458 0.55388,0.21213 1.14311,0.21213 0.57744,0 1.13132,-0.22391 0.55387,-0.23569 0.97812,-0.63637 0.42425,-0.40068 0.68351,-0.93098 0.25926,-0.54209 0.25926,-1.16668 v -4.39565 h 0.35354 z"
           style="font-weight:200;font-family:Adequate;-inkscape-font-specification:'Adequate Ultra-Light'"
           id="path2206" />
        <path
           d="m 158.55941,142.88235 q 0,0.74243 -0.3064,1.43772 -0.29462,0.69529 -0.82492,1.23738 -0.51852,0.53031 -1.23739,0.86028 -0.71886,0.31818 -1.54378,0.31818 -0.42424,0 -0.90741,-0.10606 -0.48317,-0.10606 -0.95455,-0.36532 -0.47139,-0.25926 -0.90742,-0.68351 -0.43603,-0.43603 -0.766,-1.08418 v 2.0623 h -0.34175 v -10.07583 h 0.34175 v 4.6667 q 0.31819,-0.63637 0.74243,-1.06061 0.42425,-0.43603 0.89563,-0.69529 0.48317,-0.25927 0.97812,-0.36533 0.50674,-0.10606 0.97813,-0.10606 0.82492,0 1.52021,0.32997 0.70707,0.31819 1.2256,0.86028 0.51852,0.54209 0.81313,1.26095 0.29462,0.71886 0.29462,1.50843 z m -0.35354,0 q 0,-0.74243 -0.27104,-1.40237 -0.27105,-0.65994 -0.74243,-1.16668 -0.47139,-0.50673 -1.10776,-0.80135 -0.63637,-0.29461 -1.37879,-0.29461 -0.73065,0 -1.39059,0.27104 -0.65994,0.27105 -1.15489,0.766 -0.49495,0.48317 -0.78957,1.16668 -0.29461,0.67172 -0.29461,1.48486 0,0.67172 0.28283,1.30809 0.28283,0.63637 0.766,1.13132 0.48317,0.49495 1.13132,0.80135 0.65994,0.29462 1.39058,0.29462 0.74243,0 1.39058,-0.29462 0.64816,-0.3064 1.13133,-0.80135 0.48317,-0.49495 0.75421,-1.13132 0.28283,-0.64816 0.28283,-1.33166 z"
           style="font-weight:200;font-family:Adequate;-inkscape-font-specification:'Adequate Ultra-Light'"
           id="path2208" />
        <path
           d="m 167.55124,142.81164 v 0.14142 h -7.47143 q 0.0471,0.70707 0.32997,1.34344 0.29461,0.63637 0.76599,1.11954 0.48317,0.47138 1.10776,0.75421 0.63636,0.27105 1.36701,0.27105 0.63637,0 1.20203,-0.22391 0.56566,-0.22391 1.06061,-0.62458 l 0.2357,0.23569 q -0.53031,0.43603 -1.17846,0.67172 -0.63637,0.23569 -1.31988,0.23569 -0.81314,0 -1.532,-0.3064 -0.70707,-0.31818 -1.23738,-0.84849 -0.53031,-0.53031 -0.83671,-1.23738 -0.3064,-0.71886 -0.3064,-1.52022 0,-0.81313 0.3064,-1.52021 0.3064,-0.71886 0.83671,-1.24917 0.53031,-0.5303 1.23738,-0.8367 0.71886,-0.3064 1.532,-0.3064 0.81314,0 1.52021,0.31818 0.70708,0.3064 1.23739,0.84849 0.5303,0.53031 0.8367,1.23739 0.3064,0.70707 0.3064,1.49664 z m -0.34175,-0.14142 q -0.0471,-0.70707 -0.34175,-1.33165 -0.28283,-0.63637 -0.766,-1.10776 -0.47139,-0.47138 -1.10776,-0.74243 -0.62458,-0.28283 -1.34344,-0.28283 -0.73065,0 -1.36701,0.28283 -0.62459,0.28283 -1.10776,0.766 -0.48316,0.47139 -0.77778,1.10775 -0.28283,0.62459 -0.31818,1.30809 z"
           style="font-weight:200;font-family:Adequate;-inkscape-font-specification:'Adequate Ultra-Light'"
           id="path2210" />
      </g>
      <g
         aria-label="IdP"
         id="text848"
         style="font-size:13.3887px;line-height:51.8%;font-family:'Bodoni 72';-inkscape-font-specification:'Bodoni 72, ';letter-spacing:0px;word-spacing:0px;fill:#008080;stroke-width:0.334718px">
        <path
           d="m 110.41867,146.57524 h 2.49029 v -9.34531 h -2.49029 z"
           style="font-family:Frutiger75-Black;-inkscape-font-specification:Frutiger75-Black"
           id="path2197" />
        <path
           d="m 122.14696,136.53372 h -2.42336 v 3.96305 h -0.0268 q -0.44183,-0.57571 -1.04432,-0.81671 -0.58911,-0.241 -1.35226,-0.241 -0.69621,0 -1.25854,0.29456 -0.56232,0.29455 -0.9506,0.80332 -0.37488,0.50877 -0.57571,1.13804 -0.20083,0.62927 -0.20083,1.28531 0,0.77655 0.20083,1.47276 0.21422,0.68282 0.61588,1.20498 0.41505,0.50877 1.00415,0.80332 0.60249,0.29456 1.36565,0.29456 0.81671,0 1.48614,-0.40167 0.66944,-0.41505 0.91044,-1.00415 h 0.0268 v 1.24515 h 2.22253 z m -5.34209,6.48013 q 0,-0.72299 0.38827,-1.21837 0.40166,-0.50878 1.07109,-0.50878 0.65605,0 1.05771,0.50878 0.41505,0.50877 0.41505,1.31209 0,0.74977 -0.42844,1.27192 -0.42844,0.50877 -1.04432,0.50877 -0.66943,0 -1.07109,-0.50877 -0.38827,-0.52215 -0.38827,-1.36564 z"
           style="font-family:Frutiger75-Black;-inkscape-font-specification:Frutiger75-Black"
           id="path2199" />
        <path
           d="m 123.57913,146.57524 h 2.4903 v -3.26684 h 0.96398 q 1.75392,0 2.7313,-0.78993 0.97737,-0.80333 0.97737,-2.22253 0,-1.57987 -1.03093,-2.31624 -1.01754,-0.74977 -3.15973,-0.74977 h -2.97229 z m 2.4903,-7.578 h 0.64265 q 0.70961,0 1.12466,0.29455 0.41505,0.29455 0.41505,0.96398 0,0.68283 -0.41505,0.99077 -0.41505,0.29455 -1.12466,0.29455 h -0.64265 z"
           style="font-family:Frutiger75-Black;-inkscape-font-specification:Frutiger75-Black"
           id="path2201" />
      </g>
      <g
         style="fill:#008080;fill-opacity:1;stroke:none;stroke-dasharray:none;stroke-opacity:1"
         id="g2494"
         transform="matrix(0.08278974,0,0,0.08278974,70.884343,112.65389)">
        <title
           id="title2486">Capa 1</title>
        <g
           id="g2492"
           style="fill:#008080;fill-opacity:1;stroke:none;stroke-opacity:1">
          <title
             id="title2488">Cloud Queue</title>
          <path
             style="fill:#008080;fill-opacity:1;stroke:none;stroke-opacity:1"
             inkscape:connector-curvature="0"
             id="path2490"
             d="M 397.8828,331.68125 C 391.61406,299.87656 363.68125,276 330.125,276 c -26.6422,0 -49.78125,15.11875 -61.3047,37.24375 -27.74842,2.95 -49.3203,26.45781 -49.3203,54.94375 0,30.51406 24.79844,55.3125 55.3125,55.3125 H 394.65625 C 420.1,423.5 440.75,402.85 440.75,377.40625 c 0,-24.3375 -18.89844,-44.06563 -42.8672,-45.725 z m -3.22655,73.38125 H 274.8125 c -20.37344,0 -36.875,-16.50156 -36.875,-36.875 0,-20.37344 16.50156,-36.875 36.875,-36.875 h 6.5453 c 6.0844,-21.2953 25.53595,-36.875 48.7672,-36.875 28.025,0 50.70312,22.67812 50.70312,50.70312 V 349.75 h 13.82813 c 15.30313,0 27.65625,12.35312 27.65625,27.65625 0,15.30312 -12.35312,27.65625 -27.65625,27.65625 z" />
        </g>
      </g>
      <g
         aria-label="on-prem"
         id="text1233"
         style="font-size:10.5833px;line-height:1.25;stroke-width:0.264583">
        <path
           d="m 125.23182,154.59527 q -0.0106,0.50799 -0.0318,0.91016 -0.0212,0.39158 -0.11642,0.762 -0.0847,0.3175 -0.17992,0.635 -0.0952,0.30691 -0.24341,0.61383 -0.14817,0.28575 -0.30692,0.56091 -0.15875,0.27517 -0.3175,0.55033 -0.16933,0.27517 -0.40216,0.48684 -0.23283,0.21166 -0.48683,0.39158 -0.0212,0.0212 -0.0423,0.0317 -0.0106,0 -0.0318,0.0212 -0.33866,0.29634 -0.74083,0.381 -0.40216,0.0741 -0.82549,0.0741 -0.17992,0 -0.35984,-0.0318 -0.17991,-0.0423 -0.35983,-0.0741 -0.89958,-0.17991 -1.49224,-0.71966 -0.58209,-0.53975 -0.93133,-1.34408 -0.3175,-0.70908 -0.41275,-1.44991 -0.0952,-0.74083 -0.0212,-1.50283 0.0529,-0.5715 0.16933,-1.12183 0.11642,-0.55033 0.30692,-1.09008 0.27516,-0.80433 0.70908,-1.49225 0.43392,-0.69849 1.09008,-1.25941 0.86783,-0.74083 2.02141,-0.79375 0.53975,-0.0317 0.96308,0.1905 0.43392,0.21167 0.77258,0.62442 0.381,0.47625 0.58208,1.02658 0.21167,0.53975 0.34925,1.11124 0.0847,0.34925 0.127,0.6985 0.0529,0.34925 0.10583,0.70908 0.0529,0.30692 0.0847,0.60325 0.0423,0.29633 0.0212,0.49742 z m -5.02707,1.04774 q 0.0106,0.381 0.13758,0.889 0.127,0.49742 0.4445,0.98425 0.33867,0.508 0.81492,0.75141 0.48683,0.24342 1.11124,0.1905 0.14817,-0.0212 0.28575,-0.0741 0.13758,-0.0529 0.27517,-0.11642 0.27516,-0.13758 0.42333,-0.381 0.15875,-0.24341 0.29633,-0.508 0.21167,-0.43391 0.29633,-0.88899 0.0847,-0.45508 0.127,-0.92075 0.0423,-0.40217 0.0423,-0.79375 0,-0.39158 -0.0847,-0.78316 -0.0529,-0.27517 -0.0953,-0.55033 -0.0423,-0.27517 -0.10583,-0.55033 -0.0847,-0.39159 -0.21167,-0.77259 -0.11641,-0.38099 -0.32808,-0.71966 -0.1905,-0.3175 -0.43392,-0.5715 -0.24341,-0.254 -0.60324,-0.40216 -0.30692,-0.11642 -0.508,-0.0529 -0.20109,0.0529 -0.40217,0.3175 -0.56091,0.73025 -0.89958,1.61924 -0.27516,0.75142 -0.42333,1.55575 -0.13758,0.79375 -0.15875,1.77799 z"
           style="font-family:Luna;-inkscape-font-specification:Luna"
           id="path2213" />
        <path
           d="m 127.59636,156.18276 q 0.0635,-0.21166 0.127,-0.42333 0.0635,-0.22225 0.11641,-0.43392 0.0847,-0.35983 0.1905,-0.69849 0.10584,-0.34925 0.254,-0.68792 0.14817,-0.37041 0.30692,-0.74083 0.16933,-0.381 0.34925,-0.75141 0.15875,-0.32809 0.32808,-0.64558 0.17992,-0.3175 0.35983,-0.62442 0.14817,-0.254 0.29633,-0.49741 0.14817,-0.24342 0.3175,-0.48684 0.10584,-0.15875 0.23284,-0.29633 0.13758,-0.14816 0.26458,-0.29633 0.0741,-0.0847 0.13758,-0.14817 0.0741,-0.0741 0.14817,-0.15875 0.13758,-0.16933 0.37041,-0.16933 0.11642,0.0106 0.21167,0.0212 0.10583,0.0106 0.21166,0.0106 0.127,0.0106 0.20109,0.0952 0.0741,0.0741 0.13758,0.15875 0.0847,0.10583 0.127,0.22225 0.0529,0.11642 0.0847,0.24341 0.11641,0.51859 0.127,1.03717 0.0212,0.508 -0.0212,1.03716 -0.0317,0.4445 -0.0741,0.889 -0.0318,0.4445 -0.0529,0.889 -0.0529,0.77258 -0.0741,1.54516 -0.0212,0.77258 0.0106,1.54516 0.0212,0.37042 0.0317,0.74083 0.0212,0.37042 0.0847,0.74083 0.0212,0.11642 0.0317,0.22225 0.0212,0.0952 0.0423,0.20108 0.0212,0.0847 0.0212,0.16934 0.0106,0.0741 -0.0529,0.15875 0,0.0106 -0.0106,0.0106 0,0 0,0.0106 0.0212,0.17992 -0.0847,0.26458 -0.0953,0.0847 -0.23283,0.14817 -0.13759,0.0529 -0.26459,0.11642 -0.127,0.0529 -0.27516,0.10583 -0.21167,0.0741 -0.45508,0 -0.23284,-0.0741 -0.37042,-0.254 -0.0317,-0.0423 -0.0423,-0.0952 0,-0.0529 -0.0212,-0.10583 -0.0106,-0.0423 -0.0106,-0.0741 0,-0.0423 -0.0106,-0.0847 -0.22224,-1.15358 -0.19049,-2.34949 0,-0.23284 -0.0106,-0.45509 0,-0.23283 0.0212,-0.46566 0.0212,-0.37042 0.0529,-0.74083 0.0423,-0.37042 0.0741,-0.74083 0.0318,-0.30692 0.0635,-0.61383 0.0423,-0.30692 0.0953,-0.61384 0.0317,-0.24341 0.0741,-0.48683 0.0529,-0.24341 0.0952,-0.48683 0.0741,-0.45508 0.15875,-0.89958 0.0847,-0.45508 0.10583,-0.92075 0.0106,-0.0635 0,-0.127 0,-0.0635 0,-0.14816 -0.32808,0.23283 -0.52916,0.52916 -0.11642,0.17992 -0.22225,0.37042 -0.0952,0.17991 -0.20108,0.35983 -0.11642,0.20108 -0.24342,0.40217 -0.11642,0.20108 -0.23283,0.40216 -0.127,0.22225 -0.22225,0.4445 -0.14817,0.3175 -0.29633,0.635 -0.13759,0.30691 -0.28575,0.62441 -0.0635,0.14817 -0.11642,0.3175 -0.0529,0.15875 -0.10583,0.3175 -0.13759,0.41275 -0.27517,0.8255 -0.127,0.41275 -0.254,0.8255 -0.0741,0.21166 -0.11641,0.43391 -0.0423,0.21167 -0.10584,0.42333 -0.0847,0.30692 -0.10583,0.635 -0.0212,0.3175 -0.0741,0.635 -0.0212,0.14816 -0.0635,0.29633 -0.0318,0.14817 -0.0529,0.29633 -0.0212,0.13759 -0.0318,0.27517 -0.0106,0.127 -0.0529,0.254 -0.0529,0.21166 -0.14816,0.381 -0.0423,0.0847 -0.0952,0.127 -0.0423,0.0423 -0.13758,0.0953 -0.0741,0.0317 -0.15875,0.0423 -0.0741,0 -0.15875,0 -0.0847,0 -0.15875,0 -0.0635,-0.0106 -0.11642,-0.0741 -0.23283,-0.24342 -0.34925,-0.52917 -0.16933,-0.42333 -0.254,-0.84666 -0.0847,-0.43392 -0.13758,-0.87842 -0.0529,-0.50799 -0.11642,-1.01599 -0.0635,-0.508 -0.0952,-1.016 -0.0318,-0.60325 -0.0423,-1.2065 0,-0.61383 0,-1.22766 0,-0.47625 0.0212,-0.9525 0.0318,-0.47624 0.0529,-0.96308 0.0317,-0.60324 0.0952,-1.24883 0.0212,-0.17991 0.0741,-0.35983 0.0529,-0.17991 0.16933,-0.33866 0.11642,-0.16934 0.28575,-0.17992 0.14816,-0.0212 0.27516,0.0106 0.127,0.0317 0.22225,0.17992 0.0953,0.14817 0.14817,0.29633 0.0635,0.13759 0.0847,0.3175 0.0212,0.21167 0.0529,0.41275 0.0318,0.1905 0.0635,0.40217 0.0529,0.29633 0.0741,0.58208 0.0318,0.28575 0.0423,0.59266 0.0212,0.4445 0.0423,0.87842 0.0318,0.43391 0.0529,0.87841 0.0212,0.47625 0.0423,0.9525 0.0212,0.46566 0.0423,0.94191 0.0106,0.14817 0.0212,0.29633 0.0106,0.13759 0.0318,0.28575 z"
           style="font-family:Luna;-inkscape-font-specification:Luna"
           id="path2215" />
        <path
           d="m 138.26168,153.64277 q 0.33866,0 0.64558,0 0.30692,-0.0106 0.61383,0.0106 0.26458,0.0106 0.51858,0.0423 0.26458,0.0317 0.51858,0.0635 0.11642,0.0212 0.1905,0.0847 0.0847,0.0529 0.10584,0.16934 0.0106,0.11641 -0.0212,0.22224 -0.0212,0.10584 -0.13758,0.16934 -0.10584,0.0635 -0.21167,0.127 -0.0952,0.0529 -0.21166,0.0847 -0.61384,0.1905 -1.23825,0.23284 -0.61383,0.0423 -1.24883,0.0635 -0.66675,0.0212 -1.32291,0.0318 -0.64558,0.0106 -1.31233,0.0212 -0.3175,0 -0.635,0 -0.3175,0 -0.62441,-0.15875 -0.30692,-0.14816 -0.52917,-0.3175 -0.11642,-0.0847 -0.10583,-0.21166 0.0106,-0.127 0.14816,-0.17992 0.17992,-0.0635 0.35984,-0.10583 0.1905,-0.0423 0.38099,-0.0635 1.04775,-0.0847 2.07433,-0.14817 1.02658,-0.0635 2.04258,-0.13758 z"
           style="font-family:Luna;-inkscape-font-specification:Luna"
           id="path2217" />
        <path
           d="m 143.48685,152.26694 q 0.24342,-0.33866 0.46567,-0.64558 0.23283,-0.3175 0.47625,-0.61383 0.29633,-0.34925 0.61383,-0.65617 0.32808,-0.30691 0.71966,-0.55033 0.75142,-0.46566 1.61925,-0.37041 0.27516,0.0212 0.49741,0.16933 0.22225,0.14817 0.40217,0.35983 0.0529,0.0635 0.0635,0.15875 0.0212,0.0953 0.0317,0.17992 0.0212,0.30691 -0.0317,0.60325 -0.0423,0.29633 -0.11642,0.59266 -0.0847,0.33867 -0.22225,0.635 -0.13758,0.29633 -0.29633,0.60325 -0.17992,0.33866 -0.41275,0.62441 -0.23283,0.28575 -0.49741,0.55033 -0.37042,0.37042 -0.79375,0.6985 -0.42333,0.3175 -0.96308,0.46567 -0.27517,0.0847 -0.56092,0.16933 -0.27516,0.0741 -0.58208,0.15875 0.0106,0.17991 0.0106,0.37041 0.0106,0.1905 0.0318,0.40217 0.0317,0.45508 0.0847,0.91016 0.0635,0.4445 0.0741,0.91017 0,0.31749 0.0635,0.63499 0.0741,0.3175 0.127,0.64559 0.0212,0.15874 0.0423,0.25399 0.0318,0.0952 0.0529,0.17992 0.0212,0.0741 0.0423,0.16933 0.0318,0.0952 0.0529,0.26459 0.0529,0.39158 0.10584,0.77258 0.0635,0.39158 0.127,0.78316 0.0847,0.5715 0.13758,1.13241 0.0529,0.56092 0.0317,1.13242 -0.0106,0.1905 -0.0212,0.37041 0,0.1905 -0.0212,0.381 -0.0212,0.15875 -0.0423,0.3175 -0.0106,0.16933 -0.0423,0.3175 -0.0212,0.0847 -0.0952,0.13758 -0.0741,0.0635 -0.16933,0.0847 -0.0952,0.0317 -0.20109,0.0106 -0.10583,-0.0212 -0.17991,-0.0847 -0.17992,-0.14817 -0.32809,-0.32809 -0.13758,-0.16933 -0.23283,-0.381 -0.0953,-0.22225 -0.20108,-0.45508 -0.0952,-0.22225 -0.15875,-0.45508 -0.14817,-0.52916 -0.26458,-1.05833 -0.11642,-0.51858 -0.23284,-1.04775 -0.0741,-0.30691 -0.13758,-0.60324 -0.0635,-0.28575 -0.10583,-0.58209 -0.0318,-0.24341 -0.0635,-0.41274 -0.0317,-0.16934 -0.0635,-0.3175 -0.0212,-0.15875 -0.0423,-0.32809 -0.0212,-0.16933 -0.0529,-0.41274 -0.0529,-0.41275 -0.0952,-0.81492 -0.0423,-0.41275 -0.0953,-0.8255 -0.0529,-0.45508 -0.10583,-0.89958 -0.0423,-0.44449 -0.0952,-0.88899 -0.0423,-0.27517 -0.0847,-0.55034 -0.0423,-0.28574 -0.0847,-0.56091 -0.0529,-0.41275 -0.11641,-0.8255 -0.0529,-0.41275 -0.10583,-0.82549 -0.0529,-0.51859 -0.0952,-1.02658 -0.0317,-0.51859 -0.0106,-1.04775 0,-0.0847 -0.0106,-0.15875 -0.0106,-0.0741 -0.0106,-0.14817 -0.0106,-0.29633 0.0635,-0.56091 0.0847,-0.26458 0.20108,-0.52917 0.11641,-0.24341 0.34925,-0.27516 0.23283,-0.0423 0.508,0.0847 0.20108,0.0847 0.32808,0.24342 0.13758,0.15875 0.21166,0.37041 0.15875,0.508 0.27517,1.00542 0.127,0.49741 0.16933,1.02658 0.0106,0.0847 0.0212,0.16933 0.0212,0.0847 0.0423,0.1905 z m 0.64558,1.4605 q 0.0423,0.0423 0.0741,0.0635 0.23283,-0.127 0.47625,-0.23284 0.24341,-0.11641 0.45508,-0.26458 0.81491,-0.55033 1.41816,-1.28058 0.30692,-0.35983 0.43391,-0.762 0.127,-0.41274 0.13759,-0.88899 -0.46567,0.0529 -0.78317,0.30691 -0.17991,0.14817 -0.34925,0.3175 -0.15875,0.15875 -0.33866,0.30692 -0.508,0.4445 -0.85725,0.99483 -0.33866,0.53975 -0.59266,1.15358 -0.0212,0.0741 -0.0423,0.14816 -0.0106,0.0635 -0.0317,0.13759 z"
           style="font-family:Luna;-inkscape-font-specification:Luna"
           id="path2219" />
        <path
           d="m 154.79775,150.65828 q 0.0635,0.43391 0.0952,0.85725 0.0423,0.42333 0.0317,0.86783 0,0.0952 -0.0106,0.1905 -0.0106,0.0952 -0.0318,0.17991 l -0.0635,0.60325 q -0.11642,0.0529 -0.1905,0.0423 -0.0635,-0.0212 -0.13758,-0.127 -0.29633,-0.37041 -0.33867,-0.80433 -0.0423,-0.30691 -0.0635,-0.62441 -0.0106,-0.3175 -0.0529,-0.62442 -0.0318,-0.22225 -0.0953,-0.44449 -0.0529,-0.23284 -0.10584,-0.45509 -0.0212,-0.0741 -0.0635,-0.13758 -0.0318,-0.0741 -0.0741,-0.15875 -0.10583,0.0847 -0.21167,0.15875 -0.0952,0.0635 -0.17991,0.14817 -0.37042,0.35983 -0.6985,0.76199 -0.32808,0.39159 -0.60325,0.83609 -0.254,0.41274 -0.4445,0.85724 -0.17991,0.4445 -0.29633,0.92075 -0.0212,0.0529 -0.0212,0.127 0,0.0635 0,0.127 0.0317,0.27516 0.0635,0.55033 0.0423,0.26458 0.0952,0.53975 0.0741,0.33866 0.10584,0.68791 0.0423,0.34925 0.0952,0.6985 0.0212,0.10583 0.0318,0.20108 0.0212,0.0952 0.0423,0.1905 0.0212,0.22225 0.0423,0.4445 0.0318,0.22225 0.0529,0.43392 0.0318,0.21166 0.0635,0.43391 0.0318,0.22225 0.0635,0.43392 0.0212,0.0952 0.0423,0.1905 0.0212,0.0953 0.0423,0.1905 0.0212,0.0741 0.0106,0.14816 -0.0106,0.0741 -0.0212,0.14817 -0.0106,0.13758 -0.0423,0.27516 -0.0212,0.127 -0.10583,0.23284 l -0.0635,0.0635 q -0.0847,0.0741 -0.22225,0.0741 -0.10584,0.0529 -0.28575,0.0952 -0.17992,0.0423 -0.37042,0.0423 -0.17991,0 -0.33866,-0.0529 -0.14817,-0.0635 -0.20109,-0.21167 -0.13758,-0.43392 -0.27516,-1.10066 -0.127,-0.66675 -0.254,-1.4605 -0.127,-0.80433 -0.24342,-1.67216 -0.11641,-0.87841 -0.22225,-1.72508 -0.0952,-0.85724 -0.17991,-1.62983 -0.0741,-0.77258 -0.13758,-1.36524 -0.0529,-0.59267 -0.0847,-0.9525 -0.0212,-0.35983 -0.0212,-0.381 0.0106,-0.0317 0.0952,-0.0741 0.0847,-0.0423 0.1905,-0.0741 0.11642,-0.0318 0.23283,-0.0529 0.11642,-0.0318 0.17992,-0.0529 0.0106,-0.0106 0.0423,-0.0106 0.0106,0 0.0106,-0.0106 v 0.0106 q 0.0635,-0.0212 0.11641,-0.0212 0.0635,0 0.11642,0 0.11642,0 0.15875,0.0741 0.0423,0.0741 0.10583,0.16933 0.21167,0.33867 0.34925,0.73025 0.13758,0.381 0.24342,0.78316 0.0741,0.27517 0.11641,0.55033 0.0529,0.27517 0.10584,0.55033 0,0.0212 0,0.0423 0.0106,0.0106 0.0212,0.0635 0.0423,-0.0847 0.0741,-0.14817 0.0317,-0.0635 0.0529,-0.11641 0.20108,-0.48684 0.53975,-0.94192 0.27517,-0.35983 0.56092,-0.70908 0.28574,-0.34925 0.64558,-0.635 0.0741,-0.0635 0.14816,-0.11641 0.0847,-0.0635 0.16934,-0.13759 0.1905,-0.14816 0.40216,-0.17991 0.22225,-0.0423 0.45508,-0.0212 0.0953,0.0106 0.15875,0.0741 0.0635,0.0635 0.11642,0.13759 0.23283,0.28575 0.3175,0.61383 0.0953,0.32808 0.14816,0.67733 z"
           style="font-family:Luna;-inkscape-font-specification:Luna"
           id="path2221" />
        <path
           d="m 162.93234,155.7171 q -0.20108,0.44449 -0.41275,0.87841 -0.20108,0.43392 -0.43391,0.86783 -0.21167,0.41275 -0.48683,0.79375 -0.26459,0.37041 -0.5715,0.71966 -0.46567,0.55033 -1.05833,0.83608 -0.58208,0.27517 -1.34408,0.1905 -0.79375,-0.0847 -1.35466,-0.49741 -0.56092,-0.41275 -0.93133,-1.11125 -0.254,-0.508 -0.40217,-1.02658 -0.13758,-0.52916 -0.1905,-1.09008 -0.0529,-0.43391 -0.0423,-0.85725 0,-0.42333 0.0212,-0.85724 0.0212,-0.4445 0.0952,-0.87842 0.0741,-0.43391 0.20108,-0.86783 0.17991,-0.635 0.43391,-1.22766 0.26459,-0.59267 0.68792,-1.11125 0.254,-0.3175 0.56091,-0.56091 0.30692,-0.254 0.66675,-0.4445 0.30692,-0.15875 0.62442,-0.254 0.32808,-0.10583 0.66674,-0.127 0.381,-0.0212 0.75142,0.0423 0.37041,0.0635 0.70908,0.30692 0.0847,0.0635 0.16933,0.127 0.0952,0.0529 0.1905,0.10583 0.32808,0.21167 0.56092,0.508 0.24341,0.29633 0.44449,0.635 0.20109,0.33866 0.254,0.71966 0.0529,0.381 -0.0212,0.78317 -0.254,1.31233 -1.23825,2.25424 -0.28575,0.27517 -0.58208,0.53975 -0.29633,0.254 -0.62442,0.47625 -0.46566,0.30691 -0.97366,0.49741 -0.49741,0.1905 -1.06891,0.21167 -0.0106,0 -0.0952,0.0212 0.0741,0.45509 0.22225,0.85725 0.14816,0.40217 0.43391,0.74083 0.24342,0.27517 0.53975,0.41275 0.30692,0.13758 0.66675,0.15875 0.14816,0.0106 0.254,-0.0529 0.11641,-0.0741 0.23283,-0.15875 0.24342,-0.21166 0.4445,-0.45508 0.20108,-0.254 0.37041,-0.52916 0.24342,-0.37042 0.4445,-0.75142 0.20109,-0.381 0.35984,-0.78316 0.0847,-0.1905 0.19049,-0.3175 0.11642,-0.13758 0.32809,-0.16933 0.127,0.0106 0.22225,0.0635 0.0741,0.0529 0.11641,0.14816 0.0423,0.0847 -0.0317,0.23284 z m -4.88948,-0.0106 q 0.13758,-0.0212 0.24341,-0.0318 0.11642,-0.0106 0.22225,-0.0423 0.37042,-0.0847 0.6985,-0.24342 0.33867,-0.16933 0.635,-0.39158 0.24342,-0.17991 0.46566,-0.35983 0.22225,-0.1905 0.43392,-0.39158 0.4445,-0.40217 0.6985,-0.91017 0.254,-0.50799 0.34925,-1.09008 0.0529,-0.26458 0,-0.49741 -0.0529,-0.24342 -0.23284,-0.45508 -0.33866,-0.40217 -0.80433,-0.51858 -0.45508,-0.127 -0.93133,0.10583 -0.41275,0.20108 -0.71966,0.52916 -0.29633,0.3175 -0.49742,0.71967 -0.33866,0.67733 -0.48683,1.44991 -0.0847,0.41275 -0.127,0.8255 -0.0317,0.41275 -0.0106,0.83608 0.0106,0.11641 0.0212,0.23283 0.0212,0.10583 0.0423,0.23283 z"
           style="font-family:Luna;-inkscape-font-specification:Luna"
           id="path2223" />
        <path
           d="m 165.52128,153.26177 q 0.0847,-0.21167 0.14817,-0.381 0.0635,-0.17991 0.13758,-0.35983 0.15875,-0.37042 0.3175,-0.74083 0.15875,-0.37042 0.34925,-0.71967 0.14816,-0.27516 0.37041,-0.48683 0.23284,-0.22225 0.53975,-0.33866 0.23283,-0.10584 0.49742,0 0.11641,0.0529 0.22225,0.10583 0.10583,0.0529 0.22224,0.10583 0.13759,0.0741 0.21167,0.20109 0.0847,0.11641 0.16933,0.23283 0.59267,0.94191 0.60325,2.04258 0,0.17991 0,0.35983 0.0106,0.17991 0.0212,0.35983 0,0.0212 0.0318,0.127 0.0847,-0.21167 0.14816,-0.40217 0.0741,-0.20108 0.14817,-0.38099 0.24342,-0.60325 0.51858,-1.17475 0.28575,-0.58208 0.67733,-1.11125 0.26459,-0.35983 0.58208,-0.635 0.3175,-0.28574 0.71967,-0.49741 0.27516,-0.14817 0.56091,-0.15875 0.28575,-0.0212 0.58209,0.0635 0.15874,0.0529 0.26458,0.16933 0.10583,0.10584 0.17991,0.254 0.48684,0.85725 0.55034,1.82033 0.0212,0.40216 0.0529,0.80433 0.0423,0.39158 0.0635,0.79375 0.0212,0.48683 0.0106,0.96308 -0.0106,0.47625 -0.0847,0.95249 -0.0635,0.48684 -0.0741,0.97367 0,0.48683 0.0212,0.98425 0.0212,0.24341 0.0212,0.48683 0.0106,0.24341 0.0317,0.48683 0,0.0635 0.0106,0.127 0.0106,0.0635 0.0212,0.127 0.0212,0.0952 0.0106,0.1905 0,0.0847 -0.0635,0.17991 -0.0529,0.0635 -0.0847,0.14817 -0.0212,0.0741 -0.0423,0.14817 -0.0423,0.127 -0.127,0.23283 -0.0847,0.10583 -0.1905,0.13758 -0.14816,0.0529 -0.30691,0.11642 -0.15875,0.0635 -0.33867,0.0106 -0.16933,-0.0423 -0.22225,-0.24342 -0.10583,-0.34924 -0.16933,-0.69849 -0.0635,-0.35984 -0.0741,-0.73025 0,-0.27517 -0.0106,-0.55033 0,-0.28575 0.0212,-0.56092 0.0212,-0.35983 0.0529,-0.71966 0.0318,-0.35983 0.0529,-0.71967 0.0212,-0.23283 0.0212,-0.45508 0,-0.22225 0.0212,-0.45508 0.0212,-0.24342 0.0635,-0.49741 0.0423,-0.254 0.0741,-0.49742 0.0423,-0.33867 0.0847,-0.65616 0.0423,-0.32809 0.0741,-0.66675 0.0212,-0.30692 0.0317,-0.61383 0.0212,-0.30692 0.0423,-0.61383 0.0212,-0.30692 -0.0529,-0.55034 -0.0318,-0.10583 -0.13759,-0.0952 -0.11641,0.0106 -0.22225,0.0423 -0.10583,0.0212 -0.21166,0.0847 -0.4445,0.27517 -0.762,0.66675 -0.30692,0.381 -0.56092,0.8255 -0.17991,0.32808 -0.34924,0.66675 -0.15875,0.33866 -0.3175,0.68791 -0.11642,0.254 -0.21167,0.51858 -0.0953,0.254 -0.17992,0.51858 -0.11641,0.37042 -0.21166,0.74084 -0.0952,0.35983 -0.17992,0.73024 -0.0635,0.28575 -0.0952,0.5715 -0.0318,0.28575 -0.0529,0.5715 -0.0423,0.46566 -0.0741,0.92075 -0.0212,0.45508 -0.0741,0.92074 -0.0212,0.254 -0.13758,0.47625 -0.11642,0.22225 -0.35983,0.37042 -0.0741,0.0423 -0.13759,0.0952 -0.0635,0.0423 -0.127,0.0952 -0.0212,0.0212 -0.0423,0.0318 -0.0212,0 -0.0423,0.0106 -0.15875,0.0529 -0.381,-0.0317 -0.22225,-0.0847 -0.30692,-0.23283 -0.13758,-0.21167 -0.1905,-0.43392 -0.0423,-0.23283 -0.0741,-0.47625 -0.0635,-0.37041 -0.10583,-0.74083 -0.0317,-0.37041 -0.0212,-0.75141 0,-0.0635 -0.0106,-0.127 0,-0.0741 -0.0106,-0.14817 -0.0106,-0.0741 -0.0106,-0.13758 0,-0.0741 0.0529,-0.13758 0.0106,-0.0212 0.0106,-0.0741 -0.0106,-0.127 -0.0317,-0.24341 -0.0106,-0.127 -0.0106,-0.24342 0,-0.15875 0.0106,-0.3175 0.0106,-0.15875 0.0106,-0.32808 0.0106,-0.0529 0,-0.11642 -0.0106,-0.0635 -0.0106,-0.127 l 0.0952,-1.11124 q 0.0212,-0.22225 0.0423,-0.43392 0.0212,-0.22225 0.0423,-0.4445 0.0317,-0.27516 0.0635,-0.55033 0.0318,-0.28575 0.0529,-0.56091 0.0212,-0.24342 0.0106,-0.47625 0,-0.23283 -0.0952,-0.47625 -0.17992,0.14817 -0.32809,0.3175 -0.14816,0.15875 -0.254,0.37042 -0.0635,0.127 -0.14816,0.25399 -0.0847,0.11642 -0.15875,0.24342 -0.14817,0.27517 -0.24342,0.5715 -0.0952,0.28575 -0.17991,0.58208 -0.0847,0.27517 -0.15875,0.55033 -0.0635,0.26458 -0.14817,0.53975 -0.11642,0.4445 -0.20108,0.87841 -0.0741,0.43392 -0.0847,0.89958 0,0.20109 -0.0212,0.40217 -0.0212,0.1905 -0.0212,0.39158 0,0.32808 0.0106,0.65617 0.0106,0.3175 0.0317,0.63499 0.0106,0.17992 0,0.37042 -0.0106,0.17992 0.0106,0.35983 0.0106,0.0741 0,0.14817 0,0.0635 0,0.13758 0,0.17992 -0.0423,0.30692 -0.0423,0.11641 -0.127,0.17991 -0.0741,0.0635 -0.1905,0.0952 -0.11641,0.0423 -0.23283,0.0423 -0.10583,0 -0.22225,0 -0.0741,0 -0.13758,-0.0212 -0.0635,-0.0317 -0.127,-0.0635 -0.0847,-0.0317 -0.127,-0.0635 -0.0317,-0.0317 -0.0847,-0.10583 -0.16933,-0.24342 -0.23283,-0.51858 -0.0423,-0.17992 -0.0741,-0.34925 -0.0317,-0.17992 -0.0635,-0.35984 -0.0529,-0.37041 -0.10584,-0.74083 -0.0529,-0.381 -0.10583,-0.75141 -0.0529,-0.40217 -0.10583,-0.78317 -0.0423,-0.39158 -0.0635,-0.79374 -0.0952,-1.3335 -0.127,-2.66699 -0.0212,-0.49742 -0.0106,-0.98425 0,-0.48683 0.0106,-0.99483 0.0106,-0.37042 0.0317,-0.74083 0.0212,-0.37042 0.0423,-0.74083 0,-0.127 0.127,-0.17992 0.17992,-0.0952 0.39158,-0.0423 0.22225,0.0423 0.33867,0.22225 0.11642,0.16933 0.20108,0.34925 0.0847,0.16933 0.13758,0.37041 0.0318,0.17992 0.0847,0.35983 0.0529,0.16934 0.0741,0.34925 0.0423,0.23283 0.0529,0.47625 0.0212,0.23283 0.0529,0.47625 0.0423,0.37041 0.0423,0.762 0.0106,0.381 0.127,0.78316 z"
           style="font-family:Luna;-inkscape-font-specification:Luna"
           id="path2225" />
      </g>
    </g>
  </g>
</svg>
